<svg width="66" height="66" viewBox="0 0 66 66" fill="none" xmlns="http://www.w3.org/2000/svg">
<g filter="url(#filter0_d_71_158)">
<rect x="7.33936" y="2.84798" width="54" height="54" rx="5" transform="rotate(4.77076 7.33936 2.84798)" fill="url(#paint0_linear_71_158)"/>
<path d="M43.4725 36.3345L54.4539 31.474L43.4725 26.3926V25.184L56 31.0971V31.9029L43.4725 37.5431V36.3345Z" fill="#185875"/>
<path d="M35.5965 41H34.2222V23.2086H27.9585V22H41.8603V23.2086H35.5965V41Z" fill="#4DC3FA"/>
<path d="M23.7298 41V22H25.0909V41H23.7298Z" fill="#4DC3FA"/>
<path d="M19.5275 37.5431L7 31.9029V31.0971L19.5275 25.184V26.3926L8.54612 31.474L19.5275 36.3345V37.5431Z" fill="#185875"/>
</g>
<defs>
<filter id="filter0_d_71_158" x="0.246582" y="0.246216" width="65.5073" height="65.5076" filterUnits="userSpaceOnUse" color-interpolation-filters="sRGB">
<feFlood flood-opacity="0" result="BackgroundImageFix"/>
<feColorMatrix in="SourceAlpha" type="matrix" values="0 0 0 0 0 0 0 0 0 0 0 0 0 0 0 0 0 0 127 0" result="hardAlpha"/>
<feOffset dx="1" dy="1"/>
<feGaussianBlur stdDeviation="2"/>
<feComposite in2="hardAlpha" operator="out"/>
<feColorMatrix type="matrix" values="0 0 0 0 0 0 0 0 0 0 0 0 0 0 0 0 0 0 0.25 0"/>
<feBlend mode="normal" in2="BackgroundImageFix" result="effect1_dropShadow_71_158"/>
<feBlend mode="normal" in="SourceGraphic" in2="effect1_dropShadow_71_158" result="shape"/>
</filter>
<linearGradient id="paint0_linear_71_158" x1="34.3394" y1="2.84798" x2="34.3394" y2="56.848" gradientUnits="userSpaceOnUse">
<stop offset="0.35" stop-color="#212121"/>
<stop offset="1" stop-color="#151515"/>
</linearGradient>
</defs>
</svg>
