<svg width="223" height="223" viewBox="0 0 223 223" fill="none" xmlns="http://www.w3.org/2000/svg">
<path d="M94.1985 17.0247L117.579 64.5575L152.818 25.0081L143.794 77.2055L195.55 65.9228L157.569 102.847L206.072 124.141L153.641 131.688L180.365 177.424L133.511 152.712L128.248 205.422L104.868 157.889L69.628 197.438L78.6522 145.241L26.8961 156.524L64.8776 119.599L16.3742 98.3058L68.8054 90.7584L42.0814 45.0219L88.9354 69.7343L94.1985 17.0247Z" fill="#FFC709"/>
<path d="M86.5 91.5V131.5H100.5V110L111 124L121.5 110V131.5H134V91.5H119.5L111 105L100.5 91.5H86.5Z" fill="#231F20"/>
</svg>
